<svg width="14" height="14" viewBox="0 0 14 14" fill="none" xmlns="http://www.w3.org/2000/svg">
<path d="M0.7 14V12.68C1.08667 12.5867 1.47333 12.3733 1.86 12.04C2.24667 11.6933 2.68667 11.1933 3.18 10.54L5.5 7.44C4.96667 6.76 4.43333 6.08 3.9 5.4C3.36667 4.72 2.82667 4.04 2.28 3.36C2.06667 3.08 1.87333 2.77333 1.7 2.44C1.52667 2.09333 1.38667 1.77333 1.28 1.48C1.06667 1.49333 0.88 1.50667 0.72 1.52C0.573333 1.52 0.426667 1.52667 0.28 1.54V-9.53674e-07H6.36V1.32H6.16C5.74667 1.32 5.46 1.38 5.3 1.5C5.14 1.62 5.08 1.78667 5.12 2C5.17333 2.2 5.3 2.42667 5.5 2.68C5.80667 3.05333 6.10667 3.42667 6.4 3.8C6.69333 4.17333 6.98667 4.55333 7.28 4.94L8.8 2.84C9.08 2.45333 9.3 2.17333 9.46 2C9.63333 1.81333 9.80667 1.64 9.98 1.48C9.76667 1.49333 9.5 1.50667 9.18 1.52C8.86 1.52 8.62667 1.52667 8.48 1.54V-9.53674e-07H13.02V1.32C12.7133 1.36 12.4067 1.46667 12.1 1.64C11.8067 1.81333 11.5067 2.06 11.2 2.38C10.8933 2.68667 10.56 3.08667 10.2 3.58L8.28 6.2C8.70667 6.73333 9.12667 7.26667 9.54 7.8C9.95333 8.33333 10.3667 8.86667 10.78 9.4C11.2067 9.93333 11.6267 10.4667 12.04 11C12.2667 11.28 12.4733 11.5467 12.66 11.8C12.8467 12.0533 12.9867 12.2933 13.08 12.52C13.3067 12.4933 13.4667 12.48 13.56 12.48C13.6533 12.4667 13.7667 12.46 13.9 12.46V14H7.92V12.68C8.41333 12.68 8.73333 12.62 8.88 12.5C9.02667 12.38 9.06 12.22 8.98 12.02C8.91333 11.8067 8.78 11.5733 8.58 11.32C8.24667 10.8933 7.90667 10.4667 7.56 10.04C7.22667 9.6 6.88667 9.16667 6.54 8.74C6.24667 9.14 5.95333 9.54667 5.66 9.96C5.36667 10.36 5.07333 10.76 4.78 11.16C4.5 11.5333 4.28667 11.8133 4.14 12C3.99333 12.1867 3.84 12.36 3.68 12.52C3.90667 12.5067 4.16667 12.4933 4.46 12.48C4.75333 12.4667 4.96667 12.46 5.1 12.46V14H0.7Z" fill="white"/>
</svg>
